<svg preserveAspectRatio="xMidYMid meet" data-bbox="0.003 0 186.202 28" xmlns="http://www.w3.org/2000/svg" viewBox="0.003 0 186.202 28" height="28" width="191" data-type="color" role="presentation" aria-hidden="true" aria-label="">
    <g>
        <g clip-path="url(#mobile-logo-clip)">
            <path fill="#ffffff" d="M16.091 28C22.668 28 28 22.668 28 16.091c0-6.576-5.332-11.908-11.909-11.908-6.576 0-11.908 5.332-11.908 11.908C4.183 22.668 9.515 28 16.09 28" data-color="1"></path>
            <path fill="#ffffff" d="M4.708 27.474c-6.274-6.274-6.274-16.48 0-22.765A15.97 15.97 0 0 1 16.091 0c4.309 0 8.343 1.669 11.383 4.709L25.863 6.32C20.468.949 11.703.949 6.32 6.331s-5.383 14.149 0 19.532z" data-color="1"></path>
        </g>
        <path fill="#ffffff" d="M36.938 12v-1.33h1.876V3.53h-1.876V2.2h5.194v1.33h-1.876v7.14h1.876V12zm11.296 0-2.506-9.576V12h-1.414V2.2h2.772l2.492 9.576L52.126 2.2h2.772V12h-1.4V2.424L50.978 12zm9.15 0V2.2h3.669c1.834 0 3.15 1.246 3.15 3.024 0 1.764-1.344 3.094-3.15 3.094h-2.226V12zm1.443-5.012h2.114c1.05 0 1.792-.742 1.792-1.764 0-.994-.742-1.708-1.792-1.708h-2.114zm14.58 5.194c-2.576 0-4.648-2.114-4.648-5.082 0-2.87 2.142-5.082 5.012-5.082 2.128 0 3.626 1.092 4.326 2.52l-1.246.7c-.448-.98-1.512-1.848-3.08-1.848-2.016 0-3.528 1.554-3.528 3.71 0 2.184 1.456 3.71 3.5 3.71 1.778 0 3.206-1.274 3.318-2.842v-.014h-3.22V6.652h4.676V12h-1.428V8.444c0 2.24-1.358 3.738-3.682 3.738M80.332 12V2.2h1.4V12zm6.586.182c-2.198 0-3.794-1.568-3.794-3.78 0-2.198 1.596-3.78 3.794-3.78 2.156 0 3.794 1.582 3.794 3.78 0 2.212-1.638 3.78-3.794 3.78m-2.366-3.78c0 1.498 1.008 2.506 2.366 2.506s2.366-1.008 2.366-2.506c0-1.442-1.008-2.506-2.366-2.506s-2.366 1.064-2.366 2.506m11.863 3.78c-1.624 0-2.548-1.176-2.786-2.772V12h-1.4V2.2h1.4v5.082c.238-1.652 1.386-2.66 2.786-2.66 1.862 0 3.15 1.582 3.15 3.794 0 2.156-1.316 3.766-3.15 3.766m-2.842-3.766c0 1.4.924 2.492 2.268 2.492 1.302 0 2.296-.966 2.296-2.492 0-1.498-.994-2.52-2.268-2.52-1.26 0-2.296.924-2.296 2.52m9.616 3.766c-1.442 0-2.464-.938-2.464-2.282s.994-2.128 2.38-2.268l2.45-.252c-.014-.854-.63-1.526-1.708-1.526-.994 0-1.47.63-1.596 1.204l-1.246-.364c.322-1.26 1.358-2.072 2.842-2.072 2.1 0 3.08 1.4 3.08 2.842V12h-1.386V9.788c0 1.526-.98 2.394-2.352 2.394M102.125 9.9c0 .686.588 1.12 1.358 1.12 1.484 0 2.072-1.078 2.072-2.1v-.392l-2.142.224c-.854.098-1.288.49-1.288 1.148m6.645 2.1V2.2h1.4V12zm11.009 0-2.506-9.576V12h-1.414V2.2h2.772l2.492 9.576 2.548-9.576h2.772V12h-1.4V2.424L122.523 12zm12.007.182c-2.128 0-3.626-1.554-3.626-3.822 0-2.24 1.596-3.738 3.64-3.738 2.184 0 3.43 1.666 3.43 3.57 0 .28-.014.546-.042.714h-5.628c.182 1.26 1.05 2.044 2.254 2.044.896 0 1.652-.406 2.058-1.064l1.036.672c-.56.952-1.666 1.624-3.122 1.624m-2.212-4.452h4.298c-.014-1.022-.882-1.89-2.086-1.89-1.218 0-2.002.798-2.212 1.89m9.694 7.392c-2.044 0-3.444-.714-3.444-1.932 0-.77.602-1.456 1.988-1.456h.224c-1.008-.098-1.484-.518-1.484-1.092 0-.532.476-1.022 1.484-1.064-1.05-.364-1.68-1.246-1.68-2.38 0-1.554 1.218-2.576 2.87-2.576.63 0 1.19.196 1.456.336l2.24-.28v1.358h-2.646c1.316.084 1.75.924 1.75 1.568 0 1.372-1.302 2.17-2.8 2.17-.392 0-.756-.056-1.078-.154a.63.63 0 0 0-.238.462c0 .364.364.518.742.518h1.834c1.526 0 2.548.826 2.548 2.086 0 1.932-2.086 2.436-3.766 2.436m-2.142-2.366c0 .882 1.036 1.148 2.142 1.148 1.274 0 2.338-.294 2.338-1.176 0-.532-.434-.924-1.302-.924h-2.002c-.714 0-1.176.406-1.176.952m.588-5.558c0 .868.602 1.47 1.512 1.47s1.498-.602 1.498-1.47c0-.826-.588-1.456-1.498-1.456s-1.512.63-1.512 1.456m8.706 4.984c-1.442 0-2.464-.938-2.464-2.282s.994-2.128 2.38-2.268l2.45-.252c-.014-.854-.63-1.526-1.708-1.526-.994 0-1.47.63-1.596 1.204l-1.246-.364c.322-1.26 1.358-2.072 2.842-2.072 2.1 0 3.08 1.4 3.08 2.842V12h-1.386V9.788c0 1.526-.98 2.394-2.352 2.394M145.356 9.9c0 .686.588 1.12 1.358 1.12 1.484 0 2.072-1.078 2.072-2.1v-.392l-2.142.224c-.854.098-1.288.49-1.288 1.148m9.318 2.1c-1.12 0-1.96-.588-1.96-1.946V6.036h-1.26V4.804h1.288V3.18h1.372v1.624h2.142v1.232h-2.142v3.948c0 .56.294.77.728.77h1.288V12zm3.167 0V4.804h1.386V7.66c.028-1.834 1.064-2.926 2.632-2.926v1.498h-.476c-1.456 0-2.142.994-2.142 2.156V12zm8.384.182c-2.128 0-3.626-1.554-3.626-3.822 0-2.24 1.596-3.738 3.64-3.738 2.184 0 3.43 1.666 3.43 3.57 0 .28-.014.546-.042.714h-5.628c.182 1.26 1.05 2.044 2.254 2.044.896 0 1.652-.406 2.058-1.064l1.036.672c-.56.952-1.666 1.624-3.122 1.624m-2.212-4.452h4.298c-.014-1.022-.882-1.89-2.086-1.89-1.218 0-2.002.798-2.212 1.89m7.185 4.27V4.804h1.4V7.1c0-1.302.91-2.478 2.366-2.478 1.666 0 2.52 1.246 2.52 2.618V12h-1.4V7.646c0-.994-.742-1.694-1.68-1.694-1.078 0-1.806.784-1.806 1.848V12zm10.905.182c-1.806 0-3.234-1.61-3.234-3.766 0-2.212 1.4-3.794 3.234-3.794 1.484 0 2.52 1.008 2.702 2.66V2.2h1.4V12h-1.4V9.41c-.182 1.596-1.008 2.772-2.702 2.772m-1.806-3.766c0 1.526.994 2.492 2.296 2.492 1.358 0 2.268-1.092 2.268-2.492 0-1.596-1.036-2.52-2.282-2.52-1.288 0-2.282 1.022-2.282 2.52M40.914 26.182c-2.254 0-3.724-1.498-3.724-3.584V16.2h1.148v6.384c0 1.624 1.022 2.548 2.576 2.548s2.576-.924 2.576-2.548V16.2h1.148v6.398c0 2.086-1.47 3.584-3.724 3.584m5.9-.182v-7.14h1.12v2.198c0-1.344.867-2.38 2.31-2.38 1.147 0 2.267.588 2.491 2.38.084-1.47 1.022-2.38 2.282-2.38 1.624 0 2.506 1.218 2.506 2.688V26h-1.12v-4.41c0-1.176-.728-1.876-1.806-1.876-1.022 0-1.862.728-1.862 2.086V26h-1.12v-4.424c0-1.162-.826-1.862-1.848-1.862-1.064 0-1.834.854-1.834 2.086V26zm16.772.182c-1.764 0-2.618-1.288-2.842-2.702V26h-1.12v-9.8h1.12v5.068c.224-1.582 1.386-2.59 2.842-2.59 1.876 0 3.22 1.596 3.22 3.766 0 2.156-1.386 3.738-3.22 3.738m-2.884-3.738c0 1.498.952 2.73 2.464 2.73 1.428 0 2.492-1.05 2.492-2.73 0-1.638-1.064-2.758-2.464-2.758-1.372 0-2.492.98-2.492 2.758M68.483 26v-7.14h1.106v2.856c0-1.652.952-2.926 2.674-2.926v1.204h-.154c-1.75 0-2.506 1.176-2.506 2.534V26zm8.178.182c-2.156 0-3.556-1.61-3.556-3.822 0-2.282 1.638-3.682 3.542-3.682 2.156 0 3.36 1.638 3.36 3.612 0 .182-.014.364-.028.49h-5.754c.14 1.428 1.036 2.394 2.436 2.394.98 0 1.764-.392 2.254-1.204l.84.532c-.546 1.008-1.68 1.68-3.094 1.68M74.239 21.8h4.676c0-1.19-.98-2.142-2.268-2.142-1.386 0-2.212.952-2.408 2.142M81.55 26v-9.8h1.12V26zm3.076 0v-9.8h1.12V26zm5.387.182c-1.512 0-2.52-.98-2.52-2.254 0-1.344.994-2.128 2.352-2.268l2.604-.28c-.028-.938-.686-1.694-1.904-1.694-1.092 0-1.624.672-1.778 1.344l-.994-.308c.294-1.204 1.288-2.044 2.772-2.044 2.016 0 3.01 1.33 3.01 2.772V26h-1.12v-2.24c0 1.512-1.036 2.422-2.422 2.422m-1.4-2.254c0 .812.7 1.288 1.554 1.288 1.68 0 2.282-1.302 2.282-2.394v-.462l-2.352.252c-1.008.112-1.484.588-1.484 1.316M99.824 26v-9.8h5.726v1.036h-4.592v3.36h4.116v1.022h-4.116V26zm13.466-7.14V26h-1.12v-2.198c-.07 1.036-.868 2.38-2.464 2.38-1.694 0-2.548-1.26-2.548-2.688V18.86h1.12v4.41c0 1.274.798 1.876 1.82 1.876 1.204 0 2.072-.882 2.072-2.086v-4.2zm2.101 7.14v-7.14h1.12v2.198c0-1.036.826-2.38 2.422-2.38 1.694 0 2.59 1.26 2.59 2.688V26h-1.12v-4.41c0-1.12-.84-1.876-1.862-1.876-1.204 0-2.03.882-2.03 2.086V26zm10.975.182c-1.834 0-3.304-1.582-3.304-3.738 0-2.17 1.428-3.766 3.304-3.766 1.512 0 2.534 1.008 2.758 2.59V16.2h1.12V26h-1.12v-2.52c-.224 1.414-.952 2.702-2.758 2.702m-2.156-3.738c0 1.68 1.064 2.73 2.492 2.73 1.512 0 2.464-1.232 2.464-2.73 0-1.778-1.12-2.758-2.492-2.758-1.4 0-2.464 1.12-2.464 2.758" data-color="1"></path>
        <defs fill="none">
            <clipPath id="mobile-logo-clip">
                <path fill="#ffffff" d="M28 0v28H0V0z"></path>
            </clipPath>
        </defs>
    </g>
</svg>
