<svg preserveAspectRatio="xMidYMid meet" data-bbox="0.003 0.527 452.09 34.946" xmlns="http://www.w3.org/2000/svg" viewBox="0.003 0.527 452.09 34.946" height="36" width="455" data-type="color" role="presentation" aria-hidden="true" aria-label="">
    <g>
        <g clip-path="url(#b7b4dade-8b42-4ccc-8a50-e9fc1bd2d218_comp-kbgakxea_r_comp-mdhjhra7)">
            <path fill="#ffffff" d="M20.083 35.473c8.209 0 14.863-6.654 14.863-14.863S28.292 5.748 20.083 5.748 5.221 12.402 5.221 20.61s6.654 14.863 14.862 14.863" data-color="1"/>
            <path fill="#ffffff" d="M5.876 34.817c-7.83-7.831-7.83-20.568 0-28.413C9.671 2.61 14.706.527 20.083.527S30.495 2.61 34.289 6.404l-2.01 2.01c-6.733-6.703-17.673-6.703-24.391.015-6.719 6.718-6.719 17.658 0 24.377z" data-color="1"/>
        </g>
        <path fill="#ffffff" d="M47.886 26v-2.168h3.058v-11.64h-3.058v-2.167h8.467v2.168h-3.059v11.639h3.059V26zM66.3 26l-4.085-15.61V26H59.91V10.025h4.519l4.062 15.61 4.154-15.61h4.518V26h-2.282V10.39L70.773 26zm14.916 0V10.025h5.98c2.99 0 5.135 2.03 5.135 4.93 0 2.875-2.191 5.043-5.135 5.043h-3.63V26zm2.35-8.17h3.447c1.712 0 2.921-1.21 2.921-2.876 0-1.62-1.21-2.784-2.921-2.784h-3.446zm23.768 8.467c-4.199 0-7.577-3.446-7.577-8.285 0-4.678 3.492-8.284 8.17-8.284 3.469 0 5.911 1.78 7.052 4.108l-2.031 1.141c-.73-1.597-2.465-3.012-5.021-3.012-3.286 0-5.751 2.533-5.751 6.047 0 3.56 2.374 6.048 5.706 6.048 2.898 0 5.226-2.077 5.408-4.633v-.023h-5.249v-2.122h7.623V26h-2.328v-5.797c0 3.652-2.214 6.094-6.002 6.094m11.29-.297V10.025h2.282V26zm10.736.297c-3.583 0-6.185-2.556-6.185-6.162 0-3.583 2.602-6.162 6.185-6.162 3.514 0 6.185 2.579 6.185 6.162 0 3.606-2.671 6.162-6.185 6.162m-3.857-6.162c0 2.442 1.643 4.085 3.857 4.085s3.857-1.643 3.857-4.085c0-2.35-1.643-4.085-3.857-4.085s-3.857 1.734-3.857 4.085m19.338 6.162c-2.647 0-4.153-1.917-4.541-4.519V26h-2.283V10.025h2.283v8.284c.388-2.693 2.259-4.336 4.541-4.336 3.035 0 5.135 2.579 5.135 6.185 0 3.514-2.145 6.139-5.135 6.139m-4.633-6.14c0 2.283 1.507 4.063 3.697 4.063 2.123 0 3.743-1.575 3.743-4.062 0-2.442-1.62-4.108-3.697-4.108-2.054 0-3.743 1.506-3.743 4.108m15.675 6.14c-2.351 0-4.017-1.53-4.017-3.72s1.621-3.47 3.88-3.697l3.994-.411c-.023-1.392-1.027-2.488-2.784-2.488-1.621 0-2.397 1.027-2.602 1.963l-2.031-.593c.525-2.054 2.214-3.378 4.633-3.378 3.423 0 5.02 2.282 5.02 4.633V26h-2.259v-3.606c0 2.488-1.597 3.903-3.834 3.903m-1.734-3.72c0 1.118.958 1.825 2.213 1.825 2.419 0 3.378-1.757 3.378-3.423v-.639l-3.492.365c-1.392.16-2.099.8-2.099 1.872M164.98 26V10.025h2.282V26zm17.947 0-4.085-15.61V26h-2.305V10.025h4.519l4.062 15.61 4.154-15.61h4.518V26h-2.282V10.39L187.4 26zm19.572.297c-3.469 0-5.911-2.533-5.911-6.23 0-3.652 2.602-6.094 5.934-6.094 3.56 0 5.591 2.716 5.591 5.82 0 .456-.023.89-.068 1.163h-9.175c.297 2.054 1.712 3.332 3.675 3.332 1.46 0 2.692-.662 3.354-1.734l1.689 1.095c-.913 1.552-2.716 2.648-5.089 2.648m-3.606-7.258h7.006c-.023-1.666-1.437-3.08-3.4-3.08-1.986 0-3.264 1.3-3.606 3.08m15.803 12.05c-3.332 0-5.614-1.164-5.614-3.15 0-1.254.981-2.373 3.241-2.373h.365c-1.643-.16-2.419-.844-2.419-1.78 0-.867.776-1.666 2.419-1.734-1.712-.593-2.739-2.031-2.739-3.88 0-2.533 1.986-4.199 4.679-4.199 1.027 0 1.939.32 2.373.548l3.651-.457v2.214h-4.313c2.145.137 2.853 1.506 2.853 2.556 0 2.236-2.123 3.537-4.564 3.537a6 6 0 0 1-1.758-.25c-.228.182-.388.479-.388.752 0 .594.594.845 1.21.845h2.99c2.487 0 4.153 1.346 4.153 3.4 0 3.15-3.4 3.971-6.139 3.971m-3.492-3.857c0 1.438 1.689 1.872 3.492 1.872 2.077 0 3.811-.48 3.811-1.917 0-.867-.707-1.507-2.122-1.507h-3.264c-1.164 0-1.917.662-1.917 1.552m.959-9.06c0 1.415.981 2.396 2.465 2.396s2.441-.98 2.441-2.396c0-1.346-.958-2.373-2.441-2.373-1.484 0-2.465 1.027-2.465 2.373m14.191 8.125c-2.351 0-4.017-1.53-4.017-3.72s1.621-3.47 3.88-3.697l3.994-.411c-.023-1.392-1.027-2.488-2.784-2.488-1.621 0-2.397 1.027-2.602 1.963l-2.031-.593c.525-2.054 2.214-3.378 4.633-3.378 3.423 0 5.02 2.282 5.02 4.633V26h-2.259v-3.606c0 2.488-1.597 3.903-3.834 3.903m-1.734-3.72c0 1.118.958 1.825 2.213 1.825 2.419 0 3.378-1.757 3.378-3.423v-.639l-3.492.365c-1.392.16-2.099.8-2.099 1.872M239.81 26c-1.826 0-3.195-.959-3.195-3.172v-6.55h-2.054V14.27h2.1v-2.648h2.236v2.648h3.492v2.008h-3.492v6.436c0 .913.479 1.255 1.187 1.255h2.1V26zm5.162 0V14.27h2.259v4.655c.046-2.99 1.735-4.77 4.291-4.77v2.443h-.776c-2.374 0-3.492 1.62-3.492 3.514V26zm13.667.297c-3.469 0-5.91-2.533-5.91-6.23 0-3.652 2.601-6.094 5.933-6.094 3.56 0 5.592 2.716 5.592 5.82 0 .456-.023.89-.069 1.163h-9.174c.296 2.054 1.711 3.332 3.674 3.332 1.461 0 2.693-.662 3.355-1.734l1.689 1.095c-.913 1.552-2.716 2.648-5.09 2.648m-3.605-7.258h7.006c-.023-1.666-1.438-3.08-3.401-3.08-1.985 0-3.263 1.3-3.605 3.08M266.746 26V14.27h2.282v3.742c0-2.122 1.484-4.039 3.857-4.039 2.716 0 4.108 2.031 4.108 4.268V26h-2.282v-7.098c0-1.62-1.21-2.761-2.739-2.761-1.757 0-2.944 1.278-2.944 3.013V26zm17.776.297c-2.944 0-5.272-2.625-5.272-6.14 0-3.605 2.282-6.184 5.272-6.184 2.419 0 4.108 1.643 4.404 4.336v-8.284h2.282V26h-2.282v-4.222c-.296 2.602-1.643 4.519-4.404 4.519m-2.944-6.14c0 2.488 1.62 4.063 3.742 4.063 2.214 0 3.698-1.78 3.698-4.062 0-2.602-1.689-4.108-3.72-4.108-2.1 0-3.72 1.666-3.72 4.108m24.898 6.14c-3.675 0-6.071-2.442-6.071-5.843v-10.43h1.871v10.408c0 2.647 1.666 4.153 4.2 4.153 2.533 0 4.199-1.506 4.199-4.154V10.026h1.871v10.43c0 3.4-2.396 5.842-6.07 5.842m9.616-.297V14.36h1.826v3.584c0-2.19 1.415-3.88 3.766-3.88 1.871 0 3.697.959 4.062 3.88.137-2.396 1.666-3.88 3.72-3.88 2.647 0 4.085 1.986 4.085 4.382V26h-1.826v-7.189c0-1.917-1.187-3.058-2.944-3.058-1.666 0-3.035 1.187-3.035 3.4V26h-1.826v-7.212c0-1.894-1.346-3.035-3.012-3.035-1.735 0-2.99 1.392-2.99 3.4V26zm27.342.297c-2.876 0-4.268-2.1-4.633-4.405V26h-1.826V10.025h1.826v8.261c.365-2.579 2.259-4.222 4.633-4.222 3.058 0 5.249 2.602 5.249 6.14 0 3.514-2.26 6.093-5.249 6.093m-4.702-6.094c0 2.442 1.552 4.45 4.017 4.45 2.328 0 4.062-1.711 4.062-4.45 0-2.67-1.734-4.496-4.016-4.496-2.237 0-4.063 1.598-4.063 4.496M351.417 26V14.36h1.803v4.657c0-2.693 1.552-4.77 4.359-4.77v1.962h-.251c-2.853 0-4.085 1.918-4.085 4.131V26zm13.33.297c-3.514 0-5.796-2.625-5.796-6.23 0-3.72 2.67-6.003 5.774-6.003 3.514 0 5.477 2.67 5.477 5.888 0 .297-.023.594-.046.799h-9.379c.228 2.328 1.688 3.903 3.97 3.903 1.598 0 2.876-.64 3.675-1.963l1.369.867c-.89 1.643-2.739 2.739-5.044 2.739m-3.948-7.143h7.623c0-1.94-1.598-3.492-3.697-3.492-2.26 0-3.606 1.552-3.926 3.492M372.718 26V10.025h1.826V26zm5.014 0V10.025h1.826V26zm8.78.297c-2.464 0-4.107-1.598-4.107-3.675 0-2.19 1.62-3.468 3.834-3.697l4.244-.456c-.045-1.53-1.118-2.762-3.103-2.762-1.78 0-2.648 1.096-2.899 2.191l-1.62-.502c.479-1.963 2.1-3.332 4.519-3.332 3.286 0 4.906 2.168 4.906 4.519V26h-1.825v-3.651c0 2.464-1.689 3.948-3.949 3.948m-2.282-3.675c0 1.324 1.141 2.1 2.533 2.1 2.739 0 3.72-2.122 3.72-3.902v-.754l-3.834.411c-1.643.183-2.419.959-2.419 2.145M402.506 26V10.025h9.334v1.689h-7.485v5.477h6.709v1.666h-6.709V26zm21.951-11.64V26h-1.826v-3.583c-.114 1.689-1.415 3.88-4.016 3.88-2.762 0-4.154-2.054-4.154-4.382V14.36h1.826v7.189c0 2.076 1.301 3.058 2.967 3.058 1.962 0 3.377-1.438 3.377-3.4V14.36zM427.883 26V14.36h1.826v3.584c0-1.689 1.346-3.88 3.948-3.88 2.761 0 4.222 2.054 4.222 4.382V26h-1.826v-7.189c0-1.826-1.369-3.058-3.035-3.058-1.963 0-3.309 1.438-3.309 3.4V26zm17.89.297c-2.99 0-5.386-2.58-5.386-6.094 0-3.537 2.328-6.139 5.386-6.139 2.465 0 4.13 1.643 4.496 4.222v-8.261h1.825V26h-1.825v-4.108c-.366 2.305-1.552 4.405-4.496 4.405m-3.515-6.094c0 2.739 1.735 4.45 4.062 4.45 2.465 0 4.017-2.008 4.017-4.45 0-2.898-1.826-4.496-4.062-4.496-2.282 0-4.017 1.826-4.017 4.496" data-color="1"/>
        <defs fill="none">
            <clipPath id="b7b4dade-8b42-4ccc-8a50-e9fc1bd2d218_comp-kbgakxea_r_comp-mdhjhra7">
                <path fill="#ffffff" d="M34.946.527v34.946H0V.527z"/>
            </clipPath>
        </defs>
    </g>
</svg>